<?xml version="1.0" encoding="iso-8859-1"?>
<!-- Generator: Adobe Illustrator 17.1.0, SVG Export Plug-In . SVG Version: 6.00 Build 0)  -->
<!DOCTYPE svg PUBLIC "-//W3C//DTD SVG 1.1//EN" "http://www.w3.org/Graphics/SVG/1.1/DTD/svg11.dtd">
<svg xmlns="http://www.w3.org/2000/svg" xmlns:xlink="http://www.w3.org/1999/xlink" version="1.1" id="Capa_1" x="0px" y="0px" viewBox="0 0 196.707 196.707" style="enable-background:new 0 0 196.707 196.707;" xml:space="preserve" width="512px" height="512px">
<path d="M196.707,45.142V151.54L124.018,98.2L196.707,45.142z M0,45.486v105.979L72.574,98.21L0,45.486z M192.794,35.617  c-1.018-0.735-2.26-1.341-3.68-1.483c-0.209-0.016-0.418-0.032-0.63-0.032H8.224c-0.268,0-0.533,0.015-0.795,0.04  c-0.104,0.01-0.201,0.028-0.302,0.042c-0.137,0.019-0.274,0.037-0.409,0.063c-1.311,0.256-2.341,0.829-3.131,1.484l94.749,68.834  L192.794,35.617z M115.544,104.385l-14.253,10.404c-0.878,0.641-1.913,0.961-2.948,0.961c-1.031,0-2.063-0.318-2.938-0.955  l-14.337-10.415L3.635,161.202c1.312,0.885,2.891,1.402,4.588,1.402h180.26c1.674,0,3.232-0.506,4.533-1.369L115.544,104.385z" fill="#FFFFFF"/>
<g>
</g>
<g>
</g>
<g>
</g>
<g>
</g>
<g>
</g>
<g>
</g>
<g>
</g>
<g>
</g>
<g>
</g>
<g>
</g>
<g>
</g>
<g>
</g>
<g>
</g>
<g>
</g>
<g>
</g>
</svg>
